<?xml version="1.0" encoding="UTF-8"?>
<svg id="Layer_1" data-name="Layer 1" xmlns="http://www.w3.org/2000/svg" version="1.1" viewBox="0 0 300.25 299.45">
  <defs>
    <style>
      .cls-1 {
        fill: #000;
      }

      .cls-1, .cls-2 {
        stroke-width: 0px;
      }

      .cls-2 {
        fill: #fff;
      }
    </style>
  </defs>
  <path class="cls-2" d="M206.98,149.73c.05.27.1.54.15.8-4.69.86-9.36,1.8-14.07,2.58-50.32,8.37-100.65,16.69-150.95,25.19-1.62.27-3.62,2.15-4.27,3.75-3.68,9.07-7.02,18.28-10.44,27.45-8.54,22.86-17.11,45.72-25.56,68.61-3.41,9.24.49,18.05,9.02,20.68,5.08,1.57,9.73.14,14.36-2.19,47.63-24,95.32-47.9,142.98-71.86,41.14-20.68,82.27-41.38,123.4-62.08,7.08-3.56,9.73-8.53,8.27-15.78-1.02-5.07-4.2-8.54-8.77-10.84-13.81-6.94-27.6-13.92-41.41-20.86C182.44,81.37,115.19,47.56,47.94,13.75c-7.87-3.95-15.69-8-23.64-11.79C17.3-1.36,10.56-.47,4.82,4.7-.69,9.66-1.15,15.76,1.79,22.44c1.94,4.4,3.44,9,5.13,13.52,10.23,27.37,20.41,54.76,30.78,82.09.63,1.66,2.5,3.74,4.08,4.02,26.03,4.54,52.11,8.82,78.18,13.16,29.01,4.83,58.01,9.66,87.02,14.49Z"/>
  <path class="cls-1" d="M206.98,149.73c-29.01-4.83-58.01-9.66-87.02-14.49-26.07-4.34-52.15-8.62-78.18-13.16-1.58-.27-3.45-2.36-4.08-4.02-10.36-27.32-20.55-54.71-30.78-82.09-1.69-4.52-3.19-9.12-5.13-13.52C-1.15,15.76-.69,9.66,4.82,4.7,10.56-.47,17.3-1.36,24.3,1.97c7.95,3.79,15.77,7.83,23.64,11.79,67.25,33.81,134.5,67.62,201.75,101.43,13.81,6.94,27.6,13.92,41.41,20.86,4.57,2.3,7.75,5.78,8.77,10.84,1.46,7.25-1.19,12.21-8.27,15.78-41.13,20.71-82.26,41.41-123.4,62.08-47.66,23.95-95.34,47.86-142.98,71.86-4.63,2.33-9.28,3.76-14.36,2.19-8.53-2.63-12.43-11.43-9.02-20.68,8.45-22.9,17.02-45.75,25.56-68.61,3.42-9.17,6.76-18.38,10.44-27.45.65-1.6,2.64-3.47,4.27-3.75,50.3-8.51,100.63-16.82,150.95-25.19,4.7-.78,9.38-1.72,14.07-2.58-.05-.27-.1-.54-.15-.8Z"/>
</svg>